<svg aria-hidden="true" style="width:0;height:0;position:absolute;overflow:hidden" xmlns="http://www.w3.org/2000/svg"><defs><symbol id="icon-telegram" viewBox="0 0 28 20"><path d="m10.839 13.155-.421 5.537c.604 0 .865-.243 1.179-.533l2.829-2.525 5.863 4.009c1.075.559 1.834.264 2.125-.924l3.847-16.832c.343-1.484-.575-2.064-1.621-1.7L2.019 8.271C.475 8.831.498 9.634 1.757 10l5.783 1.678 13.434-7.845c.633-.391 1.207-.175.735.216L10.84 13.155z"/></symbol><symbol id="icon-github" viewBox="0 0 20 20"><path d="M10 0C4.507 0 0 4.507 0 10c0 4.687 3.289 8.945 7.656 10v-3.308a2.443 2.443 0 0 1-1.288-.038l.017.005c-.591-.174-1.071-.568-1.428-1.168-.227-.383-.63-.8-1.05-.769l-.103-1.167c.909-.078 1.694.554 2.16 1.337.208.349.447.553.753.643.295.088.613.046.983-.085.093-.741.433-1.018.69-1.41-2.605-.388-3.643-1.77-4.055-2.86-.546-1.449-.253-3.258.712-4.402.019-.022.053-.08.04-.12-.443-1.338.096-2.444.116-2.561.511.15.594-.152 2.22.835l.28.169c.118.07.08.03.198.02a8.262 8.262 0 0 1 2.093-.293H10c.71.009 1.42.11 2.127.302l.091.01c-.008-.002.025-.006.08-.039 2.03-1.23 1.957-.828 2.502-1.005.02.118.551 1.242.114 2.562-.06.182 1.76 1.848.751 4.522-.412 1.09-1.45 2.473-4.054 2.861.334.51.735.78.733 1.83V20C16.71 18.945 20 14.687 20 10c0-5.493-4.507-10-10-10z"/></symbol><symbol id="icon-facebook" viewBox="0 0 10 20"><path d="M8.839 9.982H6.318v9.291h-3.82V9.982H.682V6.718h1.816V4.604c0-1.511.714-3.877 3.855-3.877l2.829.012v3.17H7.129c-.336 0-.811.17-.811.891v1.921h2.855l-.334 3.262z"/></symbol><symbol id="icon-arrow-right" viewBox="0 0 20 20"><path d="M2.5 10.833h12.988l-4.411 4.411a.833.833 0 1 0 1.178 1.178l5.833-5.833a.83.83 0 0 0 0-1.178l-5.833-5.833a.827.827 0 0 0-.588-.244h-.001a.833.833 0 0 0-.589 1.422l4.411 4.411H2.5a.833.833 0 0 0 0 1.666z"/></symbol><symbol id="icon-burger" viewBox="0 0 46 32"><path fill="none" stroke="#d41443" style="stroke:var(--color1,#d41443)" stroke-width="2.286" d="M0 2.286h45.714M0 16h45.714M0 29.714h45.714"/></symbol><symbol id="icon-mob-close" viewBox="0 0 32 32"><path fill="none" stroke="#fff" style="stroke:var(--color2,#fff)" stroke-width="2" d="m2.519 2 26.963 28M2 29.481 30 2.518"/></symbol><symbol id="icon-arrow-red" viewBox="0 0 19 32"><path fill="none" stroke="#d41443" style="stroke:var(--color1,#d41443)" stroke-linejoin="round" stroke-linecap="round" stroke-width="6.4" d="M3.2 3.2 16 16 3.2 28.8"/></symbol><symbol id="icon-arrow-light" viewBox="0 0 19 32"><path fill="none" stroke="#fff" style="stroke:var(--color1,#fff)" stroke-linejoin="round" stroke-linecap="round" stroke-width="6.4" d="M3.2 3.2 16 16 3.2 28.8"/></symbol><symbol id="icon-close" viewBox="0 0 32 32"><path d="M23.733 10.304 22.229 8.8l-5.963 5.963L10.303 8.8l-1.504 1.504 5.963 5.963-5.963 5.963 1.504 1.504 5.963-5.963 5.963 5.963 1.504-1.504-5.963-5.963 5.963-5.963z"/></symbol><symbol id="icon-check" viewBox="0 0 24 24"><path d="M21.481 2.349a1.476 1.476 0 0 0-2.087 0L7.395 14.348l-2.79-2.79a1.476 1.476 0 0 0-2.087 0L.431 13.645a1.476 1.476 0 0 0 0 2.087l5.92 5.92a1.476 1.476 0 0 0 2.087 0L23.567 6.523a1.476 1.476 0 0 0 0-2.087L21.48 2.349z"/></symbol></defs></svg>