<svg xmlns="http://www.w3.org/2000/svg" viewBox="-10 320 805 805">
<path d="m396.673 328.162-50.12 3.174-49.318 9.473-47.73 15.62-45.376 21.518-42.3 27.071-38.545 32.192-34.175 36.798-29.26 40.816-23.876 44.181-18.11 46.841-12.055 48.752L0 704.481l.533 50.217 6.864 49.75 13.087 48.484 19.1 46.447 24.807 43.665L94.51 983.23l34.948 36.065 39.22 31.367 42.864 26.167 45.823 20.55 48.05 14.605 49.508 8.425 50.176 2.11 50.04-4.236 49.107-10.517 47.387-16.63 44.91-22.475 41.716-27.962 37.854-33.002 33.388-37.514 28.387-41.428 22.933-44.678 17.113-47.214 11.018-48.997 4.749-49.995-1.598-50.195-7.918-49.592-14.112-48.196-20.08-46.031-25.729-43.13L693.3 461.19l-35.706-35.315-39.876-30.528-43.41-25.253-46.248-19.573-48.348-13.582-49.676-7.373-33.363-1.403z" style="fill:#D41443"/>
<path d="m166.284 724.82-16.99 9.356-13.085 14.315-7.794 17.76-1.678 19.323 4.617 18.837 10.423 16.356 15.124 12.143 9.383 4.263v98.74l3.166 25.868 9.31 24.34 14.907 21.375 19.622 17.149 23.179 11.91 25.367 5.97 11.699.64h1.986v60.1l39.722 10.502v-70.603h162.862v70.603l39.723-10.502v-60.1h1.986l25.866-3.167 24.34-9.31 21.376-14.907 17.149-19.622 11.91-23.179 5.97-25.367.64-11.7v-98.74l16.989-9.355 13.085-14.316 7.794-17.76 1.677-19.322-4.617-18.838-10.422-16.356-15.124-12.143-9.383-4.262v-31.214l-3.172-38.1-9.43-37.052-15.427-34.982-21-31.949-25.994-28.036-30.273-23.352-33.718-18.023-36.234-12.2-37.753-6.038-38.231.287-37.658 6.607-36.047 12.742-33.442 18.529-29.919 23.804-25.57 28.424-20.516 32.262-14.9 35.21-8.87 37.189-2.625 34.678v31.214zm19.86 76.038-10.677-3.114-7.329-8.366-1.682-10.995 4.492-10.175 9.258-6.164 5.939-.909h421.057l10.677 3.115 7.33 8.366 1.681 10.994-4.492 10.175-9.257 6.164-5.94.909H486.05v99.306l-3.115 10.677-8.366 7.33-10.994 1.681-10.175-4.492-6.164-9.258-.909-5.938v-99.306H186.145zm19.862-79.445v-27.806l3.171-34.63 9.408-33.477 15.25-31.078 29.196 24.685 32.875 19.517 35.651 13.812 37.444 7.726 38.206 1.427 37.916-4.911 36.582-11.114 34.24-17.01 30.955-22.44 12.612-11.692 15.306 31.225 9.38 33.485 3.143 34.475v27.806H206.006zm0 119.167h200.598v59.584l3.157 19.136 9.135 17.109 14.146 13.268L450.7 957.7l19.3 1.926 18.894-4.374 16.49-10.211 12.336-14.966 6.876-18.135 1.175-11.775V840.58h61.57v95.334l-3.16 20.413L575 974.829l-14.345 14.862-18.167 9.83-20.288 3.879-2.387.042H273.534l-20.413-3.16-18.502-9.18-14.862-14.346-9.83-18.167-3.879-20.288-.042-2.387V840.58zm329.127-278.056-26.11 22.967-29.849 17.843-32.592 12.125-34.253 6.004-34.773-.317-34.137-6.627-32.366-12.717-29.518-18.384-23.321-20.894 26.11-22.968 29.848-17.843 32.593-12.125 34.252-6.004 34.773.317 34.138 6.627 32.366 12.717 29.517 18.384 23.322 20.895z" style="fill:#ffffff"/></svg>